Coordinates
version=1
nRows=11
nColumns=36
inDegrees=yes

Units are S.I. units (second, meters, Newtons, ...)
If the header above contains a line with 'inDegrees', this indicates whether rotational values are in degrees (yes) or radians (no).

endheader
time	pelvis_tilt	pelvis_list	pelvis_rotation	pelvis_tx	pelvis_ty	pelvis_tz	hip_flexion_r	hip_adduction_r	hip_rotation_r	knee_angle_r	knee_angle_r_beta	ankle_angle_r	subtalar_angle_r	mtp_angle_r	hip_flexion_l	hip_adduction_l	hip_rotation_l	knee_angle_l	knee_angle_l_beta	ankle_angle_l	subtalar_angle_l	mtp_angle_l	lumbar_extension	lumbar_bending	lumbar_rotation	arm_flex_r	arm_add_r	arm_rot_r	elbow_flex_r	pro_sup_r	arm_flex_l	arm_add_l	arm_rot_l	elbow_flex_l	pro_sup_l
      2.91250000	    -16.21586574	      0.61062964	      2.89220234	     -0.64940651	      1.14408263	     -0.04645700	     22.22860560	      2.46854578	      0.63705181	     56.39476955	      0.98427441	      9.00338788	    -28.81587667	     -7.49999987	     15.93442621	      0.92207828	      0.90359688	     42.16755784	      0.73596272	     14.97647358	    -22.76170065	     -7.49999987	     -9.24590900	     -0.86721905	     -2.15673012	      0.77045357	    -47.22097387	    -54.13393132	    126.31519201	     86.98021559	     -8.84522734	    -62.88404894	    -65.46972625	    138.35330042	     76.04795800
      2.91666670	    -16.07371526	      0.46055457	      3.08678950	     -0.64411814	      1.14768273	     -0.04476424	     22.23466389	      2.65925957	      0.66935079	     56.93580124	      0.99371719	      7.06184274	    -28.22611846	     -7.49999987	     14.75355755	      0.46077437	      0.57070391	     40.74729364	      0.71117444	     14.31104361	    -21.87930270	     -7.49999987	     -9.60815160	     -0.76074562	     -2.20493911	     -1.36049274	    -47.42824365	    -57.42175363	    126.83125568	     87.35544271	    -10.43566523	    -63.64255607	    -68.31663294	    138.89075837	     76.43482136
      2.92083330	    -16.28642691	      0.17453823	      3.18182264	     -0.63718279	      1.14598638	     -0.04624042	     22.82810242	      2.79243672	      0.59235223	     58.01200459	      1.01250049	      5.44516444	    -27.25587792	     -7.49999987	     14.11930008	      0.00179640	      0.32545918	     39.91937146	      0.69672447	     14.07394335	    -20.99599592	     -7.49999987	     -9.31067076	     -0.32991556	     -2.23841625	     -3.33503773	    -48.19908937	    -60.35634813	    127.15410736	     87.57776169	    -11.96845215	    -64.20673144	    -71.15888765	    139.26988552	     76.75485997
      2.92500000	    -16.29626974	     -0.25900976	      3.31561894	     -0.63175027	      1.15156190	     -0.04526472	     23.30926450	      3.05977529	      0.41167816	     58.76918169	      1.02571572	      3.55221636	    -26.02615095	     -7.49999987	     13.25454223	     -0.56795411	      0.33608697	     38.86103637	      0.67825304	     13.53096482	    -20.31995055	     -7.49999987	     -8.70290053	      0.23300787	     -2.64260138	     -3.55088986	    -48.67267834	    -60.82578986	    126.98485283	     87.54016682	    -11.93641184	    -64.71997237	    -71.59095113	    139.33021254	     76.74968729
      2.92916670	    -16.22228200	     -0.49078261	      3.28069500	     -0.62633797	      1.15389845	     -0.04356607	     23.80815661	      3.45195002	      0.45333250	     59.69123519	      1.04180859	      0.76485800	    -26.57702058	     -7.49999987	     12.27954830	     -1.19138736	     -0.01757736	     37.67236674	      0.65750684	     13.18633473	    -19.50414302	     -7.49999987	     -9.48964875	      0.43233363	     -2.34846521	     -7.04779202	    -48.92612806	    -66.03360794	    127.85180834	     87.49399354	    -14.61702392	    -65.41336492	    -76.69870666	    140.07503441	     77.02764016
      2.93333330	    -16.35544677	     -0.84438395	      3.32762171	     -0.62089719	      1.14936179	     -0.04379862	     25.11103511	      3.76544624	      0.10501224	     61.71873394	      1.07719512	     -1.27622414	    -26.85745921	     -7.49999987	     11.89772631	     -1.90708737	     -0.48767715	     37.40048616	      0.65276163	     13.24543837	    -18.74565448	     -7.49999987	     -9.16624176	      0.70015317	     -2.25212116	     -9.12733267	    -49.63853418	    -69.02897062	    127.67105490	     87.45148129	    -15.88749014	    -66.47753162	    -79.34540678	    140.19219023	     77.09884404
      2.93750000	    -16.40706517	     -1.28227806	      3.32371409	     -0.61497689	      1.15808341	     -0.04476668	     25.91352672	      4.05039534	     -0.36229980	     62.72244836	      1.09471324	     -2.98524860	    -25.79500096	     -7.49999987	     11.27492828	     -2.53784673	     -0.71964094	     36.62246115	      0.63918253	     12.38948980	    -17.94946271	     -7.49999987	     -9.24231629	      1.17906030	     -2.05633087	    -11.48789167	    -49.97928074	    -72.38316673	    127.53338324	     86.37536189	    -17.09134667	    -66.64721990	    -81.95126584	    140.54473523	     76.64938604
      2.94166670	    -16.08401149	     -1.67478483	      3.25148388	     -0.60759271	      1.16323789	     -0.04486257	     26.25103029	      4.33979343	     -0.77680775	     63.63034273	      1.11055898	     -4.86998454	    -24.63261006	     -7.49999987	     10.12831792	     -3.13651626	     -0.74930790	     35.70114858	      0.62310259	     11.19776044	    -16.83321736	     -7.49999987	     -9.15072634	      1.58580373	     -2.08541586	    -12.10355007	    -50.29815752	    -73.39836239	    126.32076837	     86.39179322	    -17.45159136	    -66.99320462	    -82.69923320	    140.65693924	     76.69208804
      2.94583330	    -16.05431025	     -2.00794981	      3.16329262	     -0.60069342	      1.16353233	     -0.04392360	     26.94716915	      4.48374135	     -1.17313902	     64.95021535	      1.13359511	     -7.03139038	    -23.91535105	     -7.49999987	      9.33812356	     -3.74410462	     -1.21003280	     34.98365326	      0.61057993	     10.53622308	    -15.45279641	     -7.49999987	     -9.38571519	      2.00955393	     -1.85484922	    -14.91103537	    -50.03901902	    -77.29330887	    126.40253138	     86.72999578	    -19.29549727	    -66.94738937	    -86.02709914	    141.08289827	     76.96370347
      2.95000000	    -16.01722974	     -2.27501689	      3.25321372	     -0.59146698	      1.16779980	     -0.04320659	     27.09591711	      4.51224118	     -1.68354867	     65.39359319	      1.14133351	     -8.17658905	    -22.77612534	     -7.49999987	      8.42274801	     -4.25532152	     -1.36042111	     34.08523512	      0.59489958	      9.36244168	    -14.50799229	     -7.49999987	     -8.70145261	      2.28304248	     -2.23415090	    -15.63559970	    -49.46465168	    -77.62415502	    125.72788679	     86.68950763	    -19.53835131	    -66.84713363	    -86.34380801	    141.15399798	     76.95758423
      2.95416670	    -15.65294540	     -2.65379947	      3.27014495	     -0.58435745	      1.17580847	     -0.04531102	     26.83972354	      4.59623540	     -1.95496467	     65.38689215	      1.14121656	     -9.28558589	    -22.16305506	     -7.49999987	      7.22462868	     -4.84343222	     -1.51658729	     32.86818665	      0.57365808	      8.26114436	    -13.55751760	     -7.49999987	     -9.44043619	      2.82709905	     -1.98540116	    -18.55157151	    -48.59938916	    -81.22973215	    125.53768424	     86.87684536	    -21.21349217	    -66.30711835	    -89.28852091	    142.08400487	     77.13994628
